<svg width="64" height="64" viewBox="0 0 64 64" fill="none" xmlns="http://www.w3.org/2000/svg">
<g clip-path="url(#clip0_1_21)">
<path d="M13.332 40.3568C13.332 44.0142 10.3761 46.9701 6.71877 46.9701C3.06145 46.9701 0.10553 44.0142 0.10553 40.3568C0.10553 36.6995 3.06145 33.7437 6.71877 33.7437H13.332V40.3568ZM16.6386 40.3568C16.6386 36.6995 19.5946 33.7437 23.2518 33.7437C26.9092 33.7437 29.8651 36.6995 29.8651 40.3568V56.8899C29.8651 60.5473 26.9092 63.5032 23.2518 63.5032C19.5946 63.5032 16.6386 60.5473 16.6386 56.8899V40.3568Z" fill="#D8D7D7"/>
<path d="M23.2521 13.8031C19.5947 13.8031 16.6388 10.8472 16.6388 7.1899C16.6388 3.53257 19.5947 0.57666 23.2521 0.57666C26.9094 0.57666 29.8653 3.53257 29.8653 7.1899V13.8031H23.2521ZM23.2521 17.1599C26.9094 17.1599 29.8653 20.1158 29.8653 23.7731C29.8653 27.4304 26.9094 30.3864 23.2521 30.3864H6.66884C3.01152 30.3864 0.055603 27.4304 0.055603 23.7731C0.055603 20.1158 3.01152 17.1599 6.66884 17.1599H23.2521Z" fill="#D8D7D7"/>
<path d="M49.7552 23.7731C49.7552 20.1158 52.7112 17.1599 56.3685 17.1599C60.0257 17.1599 62.9817 20.1158 62.9817 23.7731C62.9817 27.4304 60.0257 30.3864 56.3685 30.3864H49.7552V23.7731ZM46.4486 23.7731C46.4486 27.4304 43.4926 30.3864 39.8353 30.3864C36.1781 30.3864 33.2221 27.4304 33.2221 23.7731V7.1899C33.2221 3.53257 36.1781 0.57666 39.8353 0.57666C43.4926 0.57666 46.4486 3.53257 46.4486 7.1899V23.7731Z" fill="#D8D7D7"/>
<path d="M39.8353 50.2767C43.4926 50.2767 46.4486 53.2326 46.4486 56.8899C46.4486 60.5473 43.4926 63.5032 39.8353 63.5032C36.1781 63.5032 33.2221 60.5473 33.2221 56.8899V50.2767H39.8353ZM39.8353 46.9701C36.1781 46.9701 33.2221 44.0142 33.2221 40.3568C33.2221 36.6995 36.1781 33.7437 39.8353 33.7437H56.4185C60.0759 33.7437 63.0318 36.6995 63.0318 40.3568C63.0318 44.0142 60.0759 46.9701 56.4185 46.9701H39.8353Z" fill="#D8D7D7"/>
</g>
<defs>
<clipPath id="clip0_1_21">
<rect width="64" height="64" fill="white"/>
</clipPath>
</defs>
</svg>
