<svg width="64" height="64" viewBox="0 0 64 64" fill="none" xmlns="http://www.w3.org/2000/svg">
<path fill-rule="evenodd" clip-rule="evenodd" d="M42.3868 48.1876V56.2596H52.4668C58.4188 50.7036 61.8308 42.4836 61.8308 32.7116C61.8308 30.5356 61.6548 28.3556 61.3028 26.2236H31.5548V38.5316H48.6028C47.9068 42.4476 45.6588 45.9596 42.3868 48.1876Z" fill="#D8D7D7"/>
<path fill-rule="evenodd" clip-rule="evenodd" d="M31.5548 63.9999C40.0548 63.9999 47.2428 61.1559 52.4588 56.2679L52.4668 56.2559L42.3868 48.1879C42.3508 48.2119 42.3228 48.2439 42.2908 48.2679C39.4428 50.2239 35.8028 51.3319 31.5548 51.3319C23.4308 51.3319 16.5548 45.8279 13.9748 38.4199H3.49878V46.5919C8.87878 57.2759 19.7148 63.9999 31.5548 63.9999Z" fill="#D8D7D7"/>
<mask id="mask0_1_26" style="mask-type:luminance" maskUnits="userSpaceOnUse" x="0" y="17" width="14" height="30">
<path d="M0 17.3159H13.976V46.5959H0V17.3159Z" fill="white"/>
</mask>
<g mask="url(#mask0_1_26)">
<path fill-rule="evenodd" clip-rule="evenodd" d="M13.8556 38.1349C12.5476 34.1909 12.5436 29.8909 13.8436 25.9029L13.8556 25.9109C13.8716 25.8629 13.8996 25.8189 13.9156 25.7709L13.9756 17.3149H3.57557C3.51957 17.4309 3.43957 17.5309 3.38357 17.6469C-1.12843 26.6669 -1.12843 37.3349 3.38357 46.3549V46.3989C3.41957 46.4669 3.46357 46.5269 3.49957 46.5949L13.9756 38.4229C13.9396 38.3229 13.8916 38.2349 13.8556 38.1349Z" fill="#D8D7D7"/>
</g>
<mask id="mask1_1_26" style="mask-type:luminance" maskUnits="userSpaceOnUse" x="3" y="0" width="50" height="26">
<path d="M3.57599 0H52.676V25.772H3.57599V0Z" fill="white"/>
</mask>
<g mask="url(#mask1_1_26)">
<path fill-rule="evenodd" clip-rule="evenodd" d="M3.57599 17.3164L13.912 25.7724C16.452 18.2444 23.372 12.6684 31.556 12.6684C36.072 12.5804 40.408 14.3124 43.648 17.4684L52.676 8.31243C46.932 2.89243 39.4 -0.0875699 31.556 0.000430103C19.764 0.000430103 8.97999 6.71643 3.57599 17.3164Z" fill="#D8D7D7"/>
</g>
</svg>
