<svg width="58" height="64" viewBox="0 0 58 64" fill="none" xmlns="http://www.w3.org/2000/svg">
<path d="M55.2748 30.2757C53.8673 27.8747 51.8875 25.9498 49.4124 24.5008C47.5626 23.4331 45.6447 22.7555 43.4833 22.4644V14.8355C45.6447 13.9255 46.986 11.9116 46.986 9.56204C46.986 6.35953 44.3958 3.76437 41.1685 3.76437C37.9386 3.76437 35.303 6.35953 35.303 9.56204C35.303 11.9116 36.567 13.9255 38.7284 14.8355V22.4679C36.9992 22.7156 35.2062 23.2501 33.5687 24.0713C30.2243 21.5529 19.2576 13.2908 12.8423 8.46522C12.9944 7.92133 13.1117 7.36073 13.1117 6.76927C13.1117 3.22219 10.2146 0.347168 6.63578 0.347168C3.05702 0.347168 0.161255 3.22219 0.161255 6.76927C0.161255 10.3159 3.06006 13.1918 6.63882 13.1918C7.85956 13.1918 8.98863 12.8377 9.96301 12.2557L11.3168 13.274L29.92 26.5641C28.9366 27.4593 28.0206 28.4777 27.2879 29.6204C25.8031 31.9498 24.8958 34.5128 24.8958 37.3085V37.8919C24.8958 39.8544 25.2718 41.7072 25.9124 43.4477C26.4765 44.9676 27.3013 46.3493 28.3227 47.5987L22.1486 53.7353C21.2538 53.4051 20.2821 53.3374 19.3496 53.5402C18.417 53.7429 17.563 54.2077 16.8896 54.8789C16.4235 55.3388 16.054 55.8859 15.8026 56.4884C15.5512 57.0909 15.4229 57.737 15.4251 58.389C15.4256 59.7147 15.9465 60.9606 16.8922 61.898C17.3559 62.3606 17.9074 62.7273 18.5149 62.977C19.1225 63.2267 19.774 63.3544 20.4316 63.3527C21.0896 63.3543 21.7412 63.2266 22.349 62.9769C22.9567 62.7272 23.5085 62.3605 23.9724 61.898C24.4383 61.438 24.8076 60.8912 25.0592 60.2889C25.3107 59.6867 25.4394 59.0409 25.4378 58.389C25.4378 57.876 25.3578 57.3754 25.2074 56.8997L31.589 50.5715C32.4639 51.1707 33.4089 51.6751 34.4247 52.1101C36.4282 52.969 38.6397 53.4923 41.06 53.4923H41.5035C44.1793 53.4923 46.7033 52.8692 49.076 51.5946C51.5762 50.2474 53.5332 48.4053 55.0115 46.0536C56.4976 43.6955 57.3159 41.09 57.3159 38.2236V38.0804C57.3159 35.2606 56.6576 32.6591 55.2748 30.2757ZM47.4775 43.5506C45.7454 45.4592 43.7544 46.6348 41.5035 46.6348H41.1327C39.847 46.6348 38.5896 46.2825 37.3585 45.6417C35.9709 44.9362 34.9162 43.93 34.0529 42.6557C33.1607 41.405 32.6766 40.0395 32.6766 38.5917V38.152C32.6766 36.7287 32.952 35.379 33.6462 34.1043C34.3884 32.7109 35.3908 31.6275 36.7239 30.766C38.0329 29.9105 39.4308 29.4909 40.9878 29.4909H41.1327C42.5444 29.4909 43.881 29.7669 45.1423 30.4068C46.4275 31.0891 47.4775 32.0213 48.2915 33.2475C49.082 34.4742 49.5524 35.7973 49.7037 37.2386C49.7274 37.5382 49.7395 37.8451 49.7395 38.1383C49.7395 40.0944 48.9857 41.9061 47.4775 43.5506Z" fill="#D8D7D7"/>
</svg>
